# xmcd
# 
# Track frame offsets:
#     150
#     8017
#     33799
#     83369
#     102791
#     124509
#     171420
#     186273
#     235797
#     279617
#     308282
# 
# Disc length: 4529
# 
# Revision: 2
# Processed by: cddbd v1.5.2PL0 Copyright (c) Steve Scherf et al.
# Submitted via: fre:ac v1.0.31
# 
DISCID=7511af0b
DTITLE=The Rolling Stones - Live At The Checkerboard Lounge With Muddy Waters Chicago 1981
DYEAR=1981
DGENRE=Blues
TTITLE0=Introduction
TTITLE1=You Don't Have To Go
TTITLE2=Baby Please Don't Go
TTITLE3=Hoochie Coochie Man
TTITLE4=Long Distance Call
TTITLE5=Mannish Boy
TTITLE6=Got My Mojo Workin'
TTITLE7=Next Time You See Me
TTITLE8=One Eyed Woman
TTITLE9=Clouds In My Heart
TTITLE10=Champagne And Reefer
EXTD=
EXTT0=
EXTT1=
EXTT2=
EXTT3=
EXTT4=
EXTT5=
EXTT6=
EXTT7=
EXTT8=
EXTT9=
EXTT10=
PLAYORDER=
